<svg width="40" height="40" viewBox="0 0 40 40" fill="none" xmlns="http://www.w3.org/2000/svg">
<path d="M8.39703 32.2435C8.15925 32.2435 7.96092 32.164 7.80203 32.0051C7.64203 31.8462 7.56203 31.6479 7.56203 31.4101V29.7435H6.66536C5.72536 29.7435 4.93481 29.4229 4.2937 28.7818C3.65259 28.1407 3.33203 27.3501 3.33203 26.4101V18.0768C3.33203 17.3746 3.57314 16.7824 4.05536 16.3001C4.53648 15.8179 5.1287 15.5768 5.83203 15.5768C6.53536 15.5768 7.12759 15.8179 7.6087 16.3001C8.09092 16.7824 8.33203 17.3746 8.33203 18.0768V23.9101H31.6654V18.0768C31.6654 17.3746 31.9065 16.7824 32.3887 16.3001C32.8698 15.8179 33.462 15.5768 34.1654 15.5768C34.8687 15.5768 35.4609 15.8179 35.942 16.3001C36.4243 16.7824 36.6654 17.3746 36.6654 18.0768V26.4101C36.6654 27.3501 36.3448 28.1407 35.7037 28.7818C35.0626 29.4229 34.272 29.7435 33.332 29.7435H32.4354V31.4101C32.4354 31.6257 32.3609 31.8185 32.212 31.9885C32.0631 32.1585 31.8809 32.2435 31.6654 32.2435C31.4287 32.2435 31.2304 32.164 31.0704 32.0051C30.9115 31.8451 30.832 31.6468 30.832 31.4101V29.7435H9.23036V31.4101C9.23036 31.6479 9.15036 31.8462 8.99036 32.0051C8.83148 32.164 8.63481 32.2435 8.39703 32.2435ZM9.9987 22.2435V18.0768C9.9987 17.0412 9.68814 16.1168 9.06703 15.3035C8.44703 14.4901 7.64648 14.0257 6.66536 13.9101V12.0518C6.66536 11.1118 6.98592 10.3212 7.62703 9.68013C8.26814 9.03902 9.0587 8.71791 9.9987 8.7168H29.9987C30.9387 8.7168 31.7293 9.03735 32.3704 9.67846C33.0115 10.3196 33.332 11.1101 33.332 12.0501V13.9085C32.3443 14.0196 31.542 14.4796 30.9254 15.2885C30.3076 16.0985 29.9987 17.0279 29.9987 18.0768V22.2435H9.9987Z" fill="black"/>
</svg>
